<?xml version="1.0" encoding="utf-8"?>
<!-- Generator: Adobe Illustrator 16.0.4, SVG Export Plug-In . SVG Version: 6.00 Build 0)  -->
<!DOCTYPE svg PUBLIC "-//W3C//DTD SVG 1.1//EN" "http://www.w3.org/Graphics/SVG/1.1/DTD/svg11.dtd">
<svg version="1.1" id="Layer_1" xmlns="http://www.w3.org/2000/svg" xmlns:xlink="http://www.w3.org/1999/xlink" x="0px" y="0px"
	 width="800.0px" height="800.0px" viewBox="0 0 800.0 800.0" enable-background="new 0 0 487.211 642.045"
	 xml:space="preserve">

	<!-- tail -->
	<polygon fill="#990f14" points="100,100 400,400 400,500 "/>
	<!-- <colortri points="100 100 400 400 400 500" colors="1 0 0.2 0 1 0 0 0 0 1 0 0"/> -->


	<!-- bottom -->
	<polygon fill="#EF161F" points="600,450 500,520 400,345 "/>

	<g transform="translate(-100 0)">
	<polygon fill="#EF161F" points="550,450 500,520 400,400 "/>
	</g>

	<!-- right (bird's left) wing -->
	<g transform="rotate(-5)">
	<g transform="translate(350 250)">
	<polygon fill="#f5878b" points="150,250 100,150 400,20 "/>
	</g>
	</g>

	<!-- head -->
	<g transform="translate(400 200)">
	<g transform="rotate(-25)">
	<g transform="scale(0.7 0.7)">
	<polygon fill="#EF161F" points="200,200 251.417,100 350,250 "/>
	</g>
	</g>
	</g>
	<!-- neck -->
	<g transform="translate(200 200)">
	<g transform="rotate(-0.5)">
	<polygon fill="#cc121a" points="300,200 400,0 400,300 "/>
	</g>
	</g>
	<!-- body -->

	<g transform="translate(120 10)">
	<polygon fill="#EF161F" points="400,400 320,300 400,345 "/>
	</g>

	<g transform="translate(200 200)">
	<polygon fill="#990f14" points="100,200 251.417,100 350,250 "/>
	</g>

	<!-- left (bird's right) wing -->
	<g transform="rotate(0)">
	<g transform="translate(150 250)">
	<polygon fill="#f5878b" points="0,350 200,150 400,200 "/>
	</g>
	</g>


</svg>
